<svg width="44" height="44" viewBox="0 0 44 44" fill="none" xmlns="http://www.w3.org/2000/svg">
<path d="M27.4995 19C27.4856 19 27.4301 18.9583 27.3329 18.875C27.1384 18.0833 26.7495 17.4028 26.1662 16.8333C25.5967 16.25 24.9162 15.8611 24.1245 15.6667C24.0967 15.6528 24.0551 15.5972 23.9995 15.5C23.9995 15.4722 24.0412 15.4167 24.1245 15.3333C24.9162 15.1389 25.5967 14.7569 26.1662 14.1875C26.7495 13.6042 27.1384 12.9167 27.3329 12.125C27.3467 12.0972 27.4023 12.0556 27.4995 12C27.5273 12 27.5829 12.0417 27.6662 12.125C27.8745 12.9167 28.2634 13.5972 28.8329 14.1667C29.4023 14.7361 30.0829 15.125 30.8745 15.3333C30.9023 15.3333 30.944 15.3889 30.9995 15.5C30.9995 15.5139 30.9579 15.5694 30.8745 15.6667C30.0829 15.8611 29.3954 16.25 28.812 16.8333C28.2426 17.4028 27.8606 18.0833 27.6662 18.875C27.6662 18.9028 27.6106 18.9444 27.4995 19ZM18.4995 26C18.0412 26 17.6731 25.8681 17.3954 25.6042C17.1315 25.3264 16.9995 24.9583 16.9995 24.5V15.5C16.9995 15.0417 17.1315 14.6806 17.3954 14.4167C17.6731 14.1389 18.0412 14 18.4995 14H22.4995C22.4995 14.2361 22.4995 14.4792 22.4995 14.7292C22.4995 14.9792 22.4995 15.2361 22.4995 15.5H18.4995V24.5H27.4995V20.5C27.7634 20.5 28.0204 20.5 28.2704 20.5C28.5204 20.5 28.7634 20.5 28.9995 20.5V24.5C28.9995 24.9583 28.8606 25.3264 28.5829 25.6042C28.319 25.8681 27.9579 26 27.4995 26H18.4995ZM16.3954 29.5C15.9926 29.5556 15.6245 29.4583 15.2912 29.2083C14.9579 28.9444 14.7634 28.6111 14.7079 28.2083L13.4995 19.2708C13.444 18.8542 13.5412 18.4861 13.7912 18.1667C14.0551 17.8333 14.3954 17.6389 14.812 17.5833L15.9995 17.4375V18.9583L14.9995 19.0833L16.187 28L23.687 27H26.5829C26.5273 27.3889 26.3745 27.6944 26.1245 27.9167C25.8745 28.1389 25.6037 28.2708 25.312 28.3125L16.3954 29.5Z" fill="#5E5E5E"/>
</svg>