<svg width="44" height="44" viewBox="0 0 44 44" fill="none" xmlns="http://www.w3.org/2000/svg">
<path fill-rule="evenodd" clip-rule="evenodd" d="M22 16.6862C22.8175 15.7262 24.07 15.1187 25.375 15.1187C27.685 15.1187 29.5 16.9337 29.5 19.2437C29.5 22.0764 26.9542 24.385 23.097 27.8826L23.0875 27.8912L22 28.8812L20.9125 27.8987L20.8829 27.8718C17.037 24.3769 14.5 22.0715 14.5 19.2437C14.5 16.9337 16.315 15.1187 18.625 15.1187C19.93 15.1187 21.1825 15.7262 22 16.6862ZM22 26.8562L22.075 26.7812C25.645 23.5487 28 21.4112 28 19.2437C28 17.7437 26.875 16.6187 25.375 16.6187C24.22 16.6187 23.095 17.3612 22.705 18.3887H21.3025C20.905 17.3612 19.78 16.6187 18.625 16.6187C17.125 16.6187 16 17.7437 16 19.2437C16 21.4112 18.355 23.5487 21.925 26.7812L22 26.8562Z" fill="#5E5E5E"/>
</svg>