<svg width="44" height="44" viewBox="0 0 44 44" fill="none" xmlns="http://www.w3.org/2000/svg">
<path fill-rule="evenodd" clip-rule="evenodd" d="M22 19C22.825 19 23.5 18.325 23.5 17.5C23.5 16.675 22.825 16 22 16C21.175 16 20.5 16.675 20.5 17.5C20.5 18.325 21.175 19 22 19ZM22 20.5C21.175 20.5 20.5 21.175 20.5 22C20.5 22.825 21.175 23.5 22 23.5C22.825 23.5 23.5 22.825 23.5 22C23.5 21.175 22.825 20.5 22 20.5ZM20.5 26.5C20.5 25.675 21.175 25 22 25C22.825 25 23.5 25.675 23.5 26.5C23.5 27.325 22.825 28 22 28C21.175 28 20.5 27.325 20.5 26.5Z" fill="#5E5E5E"/>
</svg>